<svg width="227" height="34" viewBox="0 0 227 34" fill="none" xmlns="http://www.w3.org/2000/svg">
<path d="M11.904 23.892H6.752V33H0.404V1.72H11.904C19.3253 1.72 23.036 5.33867 23.036 12.576C23.036 16.2253 22.0853 19.0313 20.184 20.994C18.3133 22.926 15.5533 23.892 11.904 23.892ZM6.752 18.464H11.858C15.0167 18.464 16.596 16.5013 16.596 12.576C16.596 10.644 16.2127 9.264 15.446 8.436C14.6793 7.57733 13.4833 7.148 11.858 7.148H6.752V18.464ZM38.0259 33H27.4919V1.72H38.0259C40.7246 1.72 42.9479 2.01133 44.6959 2.594C46.4439 3.146 47.7932 4.08133 48.7439 5.4C49.7252 6.688 50.3999 8.22133 50.7679 10C51.1359 11.748 51.3199 14.0327 51.3199 16.854C51.3199 19.6753 51.1512 22.0213 50.8139 23.892C50.4766 25.732 49.8326 27.388 48.8819 28.86C47.9619 30.3013 46.6126 31.3593 44.8339 32.034C43.0552 32.678 40.7859 33 38.0259 33ZM44.6959 20.58C44.7572 19.5987 44.7879 18.2493 44.7879 16.532C44.7879 14.784 44.7266 13.3887 44.6039 12.346C44.4812 11.3033 44.1899 10.3527 43.7299 9.494C43.2699 8.63533 42.5799 8.05267 41.6599 7.746C40.7706 7.40867 39.5592 7.24 38.0259 7.24H33.8399V27.48H38.0259C40.3259 27.48 41.9972 26.8973 43.0399 25.732C43.9292 24.7813 44.4812 23.064 44.6959 20.58ZM56.8259 33V1.72H76.7899V7.24H63.1739V16.44H74.3059V21.96H63.1739V33H56.8259ZM108.299 1.72H114.969L107.701 33H95.9708L88.7028 1.72H95.3728L100.801 27.48H102.871L108.299 1.72ZM118.536 33V10H124.7V33H118.536ZM118.536 7.056V0.799998H124.7V7.056H118.536ZM135.455 24.122C135.486 25.5327 135.854 26.56 136.559 27.204C137.295 27.8173 138.338 28.124 139.687 28.124C142.539 28.124 145.084 28.032 147.323 27.848L148.611 27.71L148.703 32.264C145.176 33.1227 141.987 33.552 139.135 33.552C135.67 33.552 133.155 32.632 131.591 30.792C130.027 28.952 129.245 25.962 129.245 21.822C129.245 13.5727 132.634 9.448 139.411 9.448C146.096 9.448 149.439 12.9133 149.439 19.844L148.979 24.122H135.455ZM143.367 19.43C143.367 17.59 143.076 16.3173 142.493 15.612C141.91 14.876 140.883 14.508 139.411 14.508C137.97 14.508 136.942 14.8913 136.329 15.658C135.746 16.394 135.44 17.6513 135.409 19.43H143.367ZM152.096 10H158.168L160.974 27.756H162.078L165.574 10.46H171.922L175.418 27.756H176.522L179.328 10H185.4L181.03 33H171.37L168.748 18.924L166.126 33H156.466L152.096 10ZM194.437 24.122C194.468 25.5327 194.836 26.56 195.541 27.204C196.277 27.8173 197.32 28.124 198.669 28.124C201.521 28.124 204.067 28.032 206.305 27.848L207.593 27.71L207.685 32.264C204.159 33.1227 200.969 33.552 198.117 33.552C194.652 33.552 192.137 32.632 190.573 30.792C189.009 28.952 188.227 25.962 188.227 21.822C188.227 13.5727 191.616 9.448 198.393 9.448C205.079 9.448 208.421 12.9133 208.421 19.844L207.961 24.122H194.437ZM202.349 19.43C202.349 17.59 202.058 16.3173 201.475 15.612C200.893 14.876 199.865 14.508 198.393 14.508C196.952 14.508 195.925 14.8913 195.311 15.658C194.729 16.394 194.422 17.6513 194.391 19.43H202.349ZM212.827 33V10H218.945V12.438C221.521 10.9047 223.974 9.908 226.305 9.448V15.658C223.821 16.1793 221.689 16.716 219.911 17.268L218.991 17.59V33H212.827Z" fill="white"/>
</svg>
